<?xml version="1.0" standalone="no"?>
<!DOCTYPE svg PUBLIC "-//W3C//DTD SVG 20010904//EN">
<svg version="1.0" xmlns="http://www.w3.org/2000/svg"
 width="512.000000pt" height="512.000000pt" viewBox="0 0 512.000000 512.000000"
 preserveAspectRatio="xMidYMid meet">
<metadata>
Created by potrace 1.14, written by Peter Selinger 2001-2017
</metadata>
<g transform="translate(0.000000,512.000000) scale(0.100000,-0.100000)"
fill="#000000" stroke="none">
<path d="M730 5095 c-305 -79 -557 -302 -665 -590 -63 -167 -59 -29 -61 -1920
-1 -1628 0 -1725 17 -1810 77 -384 361 -669 749 -756 82 -18 150 -18 1815 -16
952 2 1744 6 1760 10 115 24 252 81 350 145 190 123 343 337 400 558 l23 89 1
1750 c1 1536 -1 1758 -15 1815 -81 348 -326 609 -670 717 l-89 28 -1760 2
-1760 2 -95 -24z"/>
</g>
</svg>
